<svg id="Layer_1" data-name="Layer 1" xmlns="http://www.w3.org/2000/svg" viewBox="0 0 448 311"><defs><style>.cls-1{fill:#545454;stroke:#6d6d6d;}.cls-1,.cls-5,.cls-6,.cls-7,.cls-8{stroke-miterlimit:10;stroke-width:2px;}.cls-2{opacity:0.71;}.cls-3{fill:#a8e5ab;}.cls-4{fill:#4acc7e;}.cls-5,.cls-6,.cls-7,.cls-8{fill:none;}.cls-5,.cls-6{stroke:#b5b5b5;}.cls-6{stroke-dasharray:12.17 12.17;}.cls-7,.cls-8{stroke:#4acc7e;}.cls-8{stroke-dasharray:12.76 12.76;}.cls-9{fill:#fff;}.cls-10{fill:#6d6d6d;}.cls-11{opacity:0.61;}.cls-12{fill:#9ac5ef;}.cls-13{fill:#4878cc;}.cls-14{opacity:0.75;}.cls-15{fill:#f0b8f2;}.cls-16{fill:#d645c9;}</style></defs><title>Artboard 1</title><rect class="cls-1" x="32" y="111" width="288" height="38" rx="7.78" ry="7.78"/><g class="cls-2"><circle class="cls-3" cx="320" cy="224" r="17"/><path class="cls-4" d="M320,207h-1.09a18.78,18.78,0,0,0-2.13.27h-.47l-.27.06.46,1.95A15.22,15.22,0,0,1,320,209v-2Zm-7.71,1.84a17.33,17.33,0,0,0-3.32,2.22l1.3,1.52a15.09,15.09,0,0,1,2.93-2l-.91-1.79Zm-6,5.15-.46.66h0l0,0h0l0,0h0l0,0h0v0h-.06v0h-.39v0h0v0h0v0h0v0h0v0h0a16.06,16.06,0,0,0-.86,1.77l1.85.76a14.68,14.68,0,0,1,1.73-3.06L306.26,214Zm-3.05,7.31-.06.46h0v0h0v0h0v0h0v0h0v0h0v0h0v0h0v0h0v0h0v0h0c0,.1,0,.19,0,.29h0a.66.66,0,0,0,0,.14h0v.06h0v0h0v0h0v0h0v0h0v0h0v0h0v0h0v0h0v0h0v0h0v0h0v0h0c0,.24,0,.49,0,.73l2-.15c0-.38,0-.76,0-1.14a14.51,14.51,0,0,1,.19-2.38l-2-.32Zm2.51,7.3-1.91.61v0h0v0h0v0h.06v0h0v0h0l0,.06h0a17.5,17.5,0,0,0,.72,1.73h0v0h0v0h0l0,0h0v0h0v0h0v0h0v0h0v0H305v0h0l0,0h0v0h0v0h0l0,0h0v0h0l0,0h0v0h0v0h0l0,.06h0l0,0h0l.23.4,1.71-1a15.38,15.38,0,0,1-1.46-3.2Zm3.64,6L307.94,236l.65.62h0l.05.05h0v0h0l0,0h0l0,0h0v0h.33l0,0h0l0,0h.06a17.45,17.45,0,0,0,1.86,1.33l1.05-1.7a14.87,14.87,0,0,1-2.75-2.19Zm5.94,3.68-.62,1.9a16.75,16.75,0,0,0,3.91.79l.16-2a15.1,15.1,0,0,1-3.45-.7Zm10.37-.36a14.84,14.84,0,0,1-3.39.94l.3,2,.86-.16h.21a15.07,15.07,0,0,0,1.5-.41h.27c.34-.12.68-.24,1-.38l-.75-1.85Zm5.68-4.08a15.44,15.44,0,0,1-2.6,2.38l1.17,1.62a17.05,17.05,0,0,0,2.94-2.69l-1.51-1.31Zm3.22-6.21a15.36,15.36,0,0,1-1.24,3.29l1.77.93c.23-.44.44-.89.63-1.36h0l0-.07h0v0h0l0,0h0v0h0v0h0v0H336v0h0v0h0v0h0v0h0v0h0c.15-.43.29-.86.4-1.3h0v0h0v0h0v0h0v0h0l-1.94-.48Zm2-7.45-1.95.45A14.9,14.9,0,0,1,335,224v.11h2V224h0v0h0v0h0v0h0v0h0v0h0v0h0v0h0v0h0v-.05h0v0h0v0h0v0h0v-.06h0v-.06h0v-.06h0a18.12,18.12,0,0,0-.26-1.82h0v-.05h0v-.05h0v0h0v0h0v0h0v0h0v0h0v0ZM333,213.06l-1.53,1.29a15.07,15.07,0,0,1,1.93,2.94l1.79-.89,0-.05h0v0h-.12v0h0v0h0v0h0v0h0c-.15-.28-.31-.56-.48-.83h0l0,0h-.19v0h0v0h0a18.9,18.9,0,0,0-1.25-1.69Zm-6.37-4.71-.79,1.84a15.23,15.23,0,0,1,3.06,1.75l1.19-1.61a16.94,16.94,0,0,0-3.46-2ZM320,207v2a16,16,0,0,1,2.49.2l.32-2-.55-.08H320Z"/></g><line class="cls-5" x1="135.5" y1="245.5" x2="141.24" y2="243.76"/><path class="cls-6" d="M152.89,240.24l230.9-69.79a39.22,39.22,0,0,0,26.78-27.2c.17-.65.32-1.29.46-1.94a39.43,39.43,0,0,0-16-40.3L392.8,99.4a302.4,302.4,0,0,1-34.87-28.49,44.69,44.69,0,0,0-29-12.46l-71.35-4.23"/><line class="cls-5" x1="251.49" y1="53.86" x2="245.5" y2="53.5"/><line class="cls-7" x1="286.88" y1="228.27" x2="280.92" y2="228.95"/><line class="cls-8" x1="268.24" y1="230.39" x2="147.8" y2="244.1"/><line class="cls-7" x1="141.46" y1="244.82" x2="135.5" y2="245.5"/><polygon class="cls-4" points="283.74 220.79 298 227 285.5 236.25 283.74 220.79"/><path class="cls-9" d="M115.83,291.81a8.41,8.41,0,0,1-7.92-5.64l-20.9-60a8.4,8.4,0,0,1,5.16-10.69l60-20.9a8.47,8.47,0,0,1,2.76-.47,8.38,8.38,0,0,1,7.92,5.63l.86,2.45h.71a8.85,8.85,0,0,1,5.5,15.78l-.56.44,7.65,22h.71a8.84,8.84,0,0,1,5.5,15.78l-.55.44,1.08,3.13a8.39,8.39,0,0,1-5.16,10.68l-60,20.9A8.24,8.24,0,0,1,115.83,291.81Z"/><path class="cls-10" d="M154.92,195.13a7.4,7.4,0,0,1,7,5l.62,1.78.49,1.34h1.42a7.85,7.85,0,0,1,4.86,14l-1.12.88.47,1.34,7.19,20.63.47,1.34h1.42a7.85,7.85,0,0,1,4.87,14l-1.11.88.47,1.35.85,2.45a7.37,7.37,0,0,1-4.55,9.41l-60,20.9a7.28,7.28,0,0,1-2.44.42,7.39,7.39,0,0,1-7-5l-20.9-60a7.38,7.38,0,0,1,4.54-9.41l60-20.9a7.27,7.27,0,0,1,2.43-.42m0-2a9.3,9.3,0,0,0-3.09.53l-60,20.9a9.37,9.37,0,0,0-5.77,11.95l20.9,60a9.39,9.39,0,0,0,8.86,6.31,9.26,9.26,0,0,0,3.09-.53l60-20.9a9.39,9.39,0,0,0,5.78-12l-.86-2.45a9.85,9.85,0,0,0-6.11-17.57h0l-7.18-20.62a9.85,9.85,0,0,0-6.1-17.57h0l-.62-1.78a9.4,9.4,0,0,0-8.87-6.3Z"/><g class="cls-11"><circle class="cls-12" cx="353" cy="70" r="11"/><path class="cls-13" d="M353,59h-1.34a11,11,0,0,0-2.57.64l.71,1.87A8.94,8.94,0,0,1,353,61V59Zm-7.31,2.78a12.22,12.22,0,0,0-1.07,1.09h0l-.06.06h-.05l0,0h-.15l0,0h-.06l0,.06h0c-.24.33-.47.68-.68,1h0l0,0h-.11l0,.08h0l0,.06,1.77.92a9.08,9.08,0,0,1,2-2.56l-1.33-1.5Zm-3.62,6.94c0,.08,0,.15,0,.23h0v0h0v0h0v0h0v0h0v0h0v0h0v0h0v0h0v0h0v0h0v0h0a10.93,10.93,0,0,0,.28,1.65l1.94-.49A9,9,0,0,1,344,70a9.24,9.24,0,0,1,.06-1l-2-.23Zm3.56,6.44L344,76.31a11.24,11.24,0,0,0,1.82,2h0l.05.05h.18c.24.19.49.38.75.55L348,77.45a9,9,0,0,1-2.32-2.29Zm5.29,3.6-.46,1.95.26.05h2.7l.68,0h.15l.18,0-.25-2A9.36,9.36,0,0,1,353,79a9.09,9.09,0,0,1-2.08-.24Zm8.89-2.87a9.28,9.28,0,0,1-2.54,2l1,1.76a11,11,0,0,0,3.1-2.5l-1.51-1.3Zm4.19-6-2,0V70a8.92,8.92,0,0,1-.54,3.08l1.88.69a11.42,11.42,0,0,0,.56-2.27h0v-.1h0v0h0v0h0v0h0v0h0v0h0v0h0v0h0v0h0v0h0v0h0v0h0v0h0v0h0Zm-2.89-7.27-1.47,1.35a9.12,9.12,0,0,1,1.73,2.76l1.86-.74a11.2,11.2,0,0,0-1.42-2.53h-.05v0h-.07l0,0h0a7.34,7.34,0,0,0-.51-.6Zm-7-3.51-.2,2A8.77,8.77,0,0,1,357,62l.9-1.79c-.25-.13-.5-.24-.75-.35h0l-.07,0h0l0,0h-2.12l-.08,0h0c-.23,0-.46-.07-.7-.09Z"/></g><g class="cls-11"><circle class="cls-12" cx="412" cy="135" r="11"/><path class="cls-13" d="M412,124h-1.34a11,11,0,0,0-2.57.64l.71,1.87A8.94,8.94,0,0,1,412,126v-2Zm-7.31,2.78a12.22,12.22,0,0,0-1.07,1.09h0l-.06.06h-.05l0,0h-.15l0,0h-.06l0,.06h0c-.24.33-.47.68-.68,1h0l0,0h-.11l0,.08h0l0,.06,1.77.92a9.08,9.08,0,0,1,2-2.56l-1.33-1.5Zm-3.62,6.94c0,.08,0,.15,0,.23h0v0h0v0h0v0h0v0h0v0h0v0h0v0h0v0h0v0h0v0h0v0h0a10.93,10.93,0,0,0,.28,1.65l1.94-.49A9,9,0,0,1,403,135a9.24,9.24,0,0,1,.06-1.05l-2-.23Zm3.56,6.44L403,141.31a11.24,11.24,0,0,0,1.82,2h0l.05.05h.18c.24.19.49.38.75.55l1.13-1.65a9,9,0,0,1-2.32-2.29Zm5.29,3.6-.46,2,.26,0h2.7l.68,0h.15l.18,0-.25-2A9.36,9.36,0,0,1,412,144a9.09,9.09,0,0,1-2.08-.24Zm8.89-2.87a9.28,9.28,0,0,1-2.54,2l1,1.76a11,11,0,0,0,3.1-2.5l-1.51-1.3Zm4.19-6-2,0V135a8.92,8.92,0,0,1-.54,3.08l1.88.69a11.42,11.42,0,0,0,.56-2.27h0v-.1h0v0h0v0h0v0h0v0h0v0h0v0h0v0h0v0h0v0h0v0h0v0h0v0h0v0h0Zm-2.89-7.27-1.47,1.35a9.12,9.12,0,0,1,1.73,2.76l1.86-.74a11.2,11.2,0,0,0-1.42-2.53h-.05v0h-.07l0,0h0a7.34,7.34,0,0,0-.51-.6Zm-7-3.51-.2,2A8.77,8.77,0,0,1,416,127l.9-1.79c-.25-.13-.5-.24-.75-.35h0l-.07,0h0l0,0h-2.12l-.08,0h0c-.23,0-.46-.07-.7-.09Z"/></g><g class="cls-14"><polygon class="cls-15" points="246 28.11 251.81 46 270.62 46 255.41 57.06 261.22 74.94 246 63.89 230.78 74.94 236.59 57.06 221.38 46 240.19 46 246 28.11"/><path class="cls-16" d="M246,28.11l0,.11h0l-1,3.13h0l-.19.57.42.13.18.57.79-.25.52.16.12-.37.47-.16-.21-.65h0L246,28.11Zm-2.47,7.61-1.24,3.8,1.9.62,1.24-3.8-1.9-.62Zm-2.47,7.61-.57,1.74h0l-.05.15h0v0h0v0h0v0h-.07v0h0v0h0v0h0v0h0v0h0v0h0l0,.06h0v.06h0l0,.11H239v2h2.64l.45-1.38L243,44l-1.9-.62ZM235,46h-4v2h4V46Zm-8,0h-4v1.18l1.13.82h0l1.46,1.06h0l.93.67,1.18-1.62-.72-.52V46ZM231,50.48l-1.17,1.62L233,54.45l1.18-1.61L231,50.48Zm6.48,4.71-1.18,1.61.32.24h0v0h0v0h0l-1.07,3.29,1.9.62,1.11-3.4.45-1.38-1.18-.85-.34-.25Zm-3.17,9.07L233,68.06l1.9.62,1.24-3.8-1.9-.62Zm-2.48,7.61-1,3.07h0l2.76-2,.15-.46-1.91-.61Zm4.92-3.69-3.24,2.35,1.18,1.61L236.17,71l1.7-1.24-1.17-1.61Zm6.47-4.71-3.24,2.35,1.18,1.62,3.24-2.35-1.18-1.62Zm5.59,0L247.58,65l1.09.79h.06l0,0h0l2,1.48L252,65.77l-3.23-2.35Zm6.47,4.7-1.18,1.62,3.24,2.35,1.17-1.62-3.23-2.35Zm5,3.83-1.9.62.12.37,2.76,2h0l-.33-1h0l-.65-2Zm-2.47-7.61-1.9.62,1.24,3.81,1.9-.62-1.24-3.81Zm-3.27-9.1-.27.2-1.18.85.45,1.38,1.13,3.49,1.91-.62-1.14-3.48h0l.28-.2-1.18-1.62Zm6.47-4.7-3.23,2.35,1.17,1.62,2.42-1.76h.05l.77-.56L261,50.54ZM269.09,46h-4v1.54l-.88.65,1.17,1.61,2.08-1.5h0l1.6-1.16V46Zm-8,0h-4v2h4V46ZM251,43.42l-1.9.61.84,2.59.45,1.38h2.73V46h-1.28l0-.11h0v0h0v0h0l0-.07h0v0h0v0h0L251,43.42Zm-2.47-7.61-1.9.61,1.23,3.81,1.91-.62-.66-2h0l-.56-1.72Z"/></g></svg>