<svg id="Layer_1" data-name="Layer 1" xmlns="http://www.w3.org/2000/svg" viewBox="0 0 499 288"><defs><style>.cls-1{opacity:0.49;}.cls-2{fill:#d1d1d1;}.cls-3{fill:#cc6d6d;}.cls-14,.cls-4,.cls-8{opacity:0.63;}.cls-10,.cls-14,.cls-5,.cls-6,.cls-8,.cls-9{fill:none;stroke-linecap:round;stroke-miterlimit:10;stroke-width:2px;}.cls-5,.cls-6,.cls-8,.cls-9{stroke:#4be256;}.cls-6{stroke-dasharray:13.11 13.11;}.cls-7{fill:#4be256;}.cls-8,.cls-9{stroke-dasharray:3;}.cls-9{opacity:0.93;}.cls-10,.cls-14{stroke:#e04c4c;}.cls-10{stroke-dasharray:12 12;}.cls-11{fill:#e04c4c;}.cls-12{fill:#fff;}.cls-13{fill:#6d6d6d;}.cls-14{stroke-dasharray:6;}</style></defs><title>Artboard 5</title><g class="cls-1"><path class="cls-2" d="M84.63,107.87a8.48,8.48,0,0,1-2-.24l-61.71-15a8.38,8.38,0,0,1-6.17-10.14L29.8,20.73a8.38,8.38,0,0,1,10.14-6.17l61.72,15.05a8.4,8.4,0,0,1,6.16,10.14l-.61,2.52.6.39a8.84,8.84,0,0,1-4,16.23l-.7.07-5.51,22.6.59.39a8.84,8.84,0,0,1-4,16.23l-.7.07-.79,3.22A8.36,8.36,0,0,1,84.63,107.87Z"/><path class="cls-3" d="M38,15.32h0a7.56,7.56,0,0,1,1.76.21l61.71,15.05a7.4,7.4,0,0,1,5.43,8.93l-.45,1.83-.33,1.39,1.19.77a7.84,7.84,0,0,1-3.51,14.4l-1.42.13L102,59.41,96.82,80.64,96.49,82l1.19.77a7.85,7.85,0,0,1-3.51,14.4l-1.42.13-.33,1.39-.62,2.52a7.37,7.37,0,0,1-7.17,5.64,7.5,7.5,0,0,1-1.76-.21l-61.72-15a7.4,7.4,0,0,1-5.42-8.93L30.78,21A7.36,7.36,0,0,1,38,15.32m0-2a9.4,9.4,0,0,0-9.12,7.17l-15,61.71a9.39,9.39,0,0,0,6.9,11.35l61.72,15a9.37,9.37,0,0,0,11.34-6.9l.62-2.52a9.85,9.85,0,0,0,4.41-18.07l5.17-21.22a9.85,9.85,0,0,0,4.41-18.07l.44-1.83a9.39,9.39,0,0,0-6.89-11.35l-61.72-15A9.57,9.57,0,0,0,38,13.32Z"/></g><g class="cls-4"><line class="cls-5" x1="80" y1="196" x2="80" y2="190"/><line class="cls-6" x1="80" y1="176.89" x2="80" y2="131.03"/><line class="cls-5" x1="80" y1="124.47" x2="80" y2="118.47"/><polygon class="cls-7" points="86.58 120.4 80 109 73.42 120.4 86.58 120.4"/></g><line class="cls-5" x1="80" y1="234" x2="141.64" y2="166.02"/><polygon class="cls-7" points="145.22 171.87 148 159 135.47 163.02 145.22 171.87"/><circle class="cls-8" cx="80" cy="85" r="12"/><circle class="cls-9" cx="157" cy="139" r="12"/><g class="cls-4"><line class="cls-10" x1="80" y1="85" x2="137.67" y2="126.7"/><polygon class="cls-11" points="132.5 130.72 145 132 139.87 120.53 132.5 130.72"/></g><path class="cls-12" d="M47.74,273.34A8.4,8.4,0,0,1,39.35,265V201.42A8.4,8.4,0,0,1,47.74,193h2.59l.24-.67a8.85,8.85,0,0,1,16.71,0l.23.67H90.77l.24-.67a8.85,8.85,0,0,1,16.71,0l.23.67h3.31a8.4,8.4,0,0,1,8.39,8.39V265a8.4,8.4,0,0,1-8.39,8.39Z"/><path class="cls-13" d="M99.37,187.42a7.83,7.83,0,0,1,7.4,5.27l.47,1.34h4a7.4,7.4,0,0,1,7.39,7.39V265a7.4,7.4,0,0,1-7.39,7.39H47.74A7.4,7.4,0,0,1,40.35,265V201.42A7.4,7.4,0,0,1,47.74,194H51l.47-1.34a7.84,7.84,0,0,1,14.82,0L66.8,194H91.49l.46-1.34a7.87,7.87,0,0,1,7.42-5.27m0-2A9.86,9.86,0,0,0,90.06,192H68.22a9.85,9.85,0,0,0-18.6,0H47.74a9.39,9.39,0,0,0-9.39,9.39V265a9.38,9.38,0,0,0,9.39,9.39h63.52a9.38,9.38,0,0,0,9.39-9.39V201.42a9.39,9.39,0,0,0-9.39-9.39h-2.6a9.83,9.83,0,0,0-9.29-6.61Z"/><g class="cls-1"><path class="cls-2" d="M355.63,107.87a8.48,8.48,0,0,1-2-.24l-61.71-15a8.38,8.38,0,0,1-6.17-10.14L300.8,20.73a8.38,8.38,0,0,1,10.14-6.17l61.72,15.05a8.4,8.4,0,0,1,6.16,10.14l-.61,2.52.6.39a8.84,8.84,0,0,1-4,16.23l-.7.07-5.51,22.6.59.39a8.84,8.84,0,0,1-4,16.23l-.7.07-.79,3.22A8.36,8.36,0,0,1,355.63,107.87Z"/><path class="cls-3" d="M309,15.32h0a7.56,7.56,0,0,1,1.76.21l61.71,15.05a7.4,7.4,0,0,1,5.43,8.93l-.45,1.83-.33,1.39,1.19.77a7.84,7.84,0,0,1-3.51,14.4l-1.42.13L373,59.41l-5.18,21.23L367.49,82l1.19.77a7.85,7.85,0,0,1-3.51,14.4l-1.42.13-.33,1.39-.62,2.52a7.37,7.37,0,0,1-7.17,5.64,7.5,7.5,0,0,1-1.76-.21l-61.72-15a7.4,7.4,0,0,1-5.42-8.93l15-61.72A7.36,7.36,0,0,1,309,15.32m0-2a9.4,9.4,0,0,0-9.12,7.17L284.78,82.2a9.39,9.39,0,0,0,6.9,11.35l61.72,15a9.37,9.37,0,0,0,11.34-6.9l.62-2.52a9.85,9.85,0,0,0,4.41-18.07l5.17-21.22a9.85,9.85,0,0,0,4.41-18.07l.44-1.83a9.39,9.39,0,0,0-6.89-11.35l-61.72-15a9.57,9.57,0,0,0-2.23-.27Z"/></g><path class="cls-14" d="M453.4,132.6l-61.72-15a9.39,9.39,0,0,1-6.9-11.35l15.05-61.71a9.39,9.39,0,0,1,11.35-6.9l61.72,15A9.39,9.39,0,0,1,479.79,64l-.44,1.83a9.85,9.85,0,0,1-4.41,18.07l-5.17,21.22a9.85,9.85,0,0,1-4.41,18.07l-.62,2.52A9.37,9.37,0,0,1,453.4,132.6Z"/><g class="cls-4"><line class="cls-5" x1="351" y1="196" x2="351" y2="190"/><line class="cls-6" x1="351" y1="176.89" x2="351" y2="131.03"/><line class="cls-5" x1="351" y1="124.47" x2="351" y2="118.47"/><polygon class="cls-7" points="357.58 120.4 351 109 344.42 120.4 357.58 120.4"/></g><line class="cls-5" x1="351" y1="234" x2="410.07" y2="213.15"/><polygon class="cls-7" points="410.44 220 419 210 406.06 207.59 410.44 220"/><circle class="cls-8" cx="351" cy="85" r="12"/><circle class="cls-8" cx="428" cy="139" r="12"/><circle class="cls-9" cx="436" cy="203" r="12"/><g class="cls-4"><line class="cls-10" x1="351" y1="85" x2="408.67" y2="126.7"/><polygon class="cls-11" points="403.5 130.72 416 132 410.87 120.53 403.5 130.72"/></g><g class="cls-4"><line class="cls-10" x1="428" y1="139" x2="432.83" y2="176.03"/><polygon class="cls-11" points="426.36 175.02 434 185 438.82 173.4 426.36 175.02"/></g><path class="cls-12" d="M318.74,273.34a8.4,8.4,0,0,1-8.39-8.39V201.42a8.4,8.4,0,0,1,8.39-8.39h2.59l.24-.67a8.85,8.85,0,0,1,16.71,0l.23.67h23.26l.24-.67a8.85,8.85,0,0,1,16.71,0l.23.67h3.31a8.4,8.4,0,0,1,8.39,8.39V265a8.4,8.4,0,0,1-8.39,8.39Z"/><path class="cls-13" d="M370.37,187.42a7.83,7.83,0,0,1,7.4,5.27l.47,1.34h4a7.4,7.4,0,0,1,7.39,7.39V265a7.4,7.4,0,0,1-7.39,7.39H318.74a7.4,7.4,0,0,1-7.39-7.39V201.42a7.4,7.4,0,0,1,7.39-7.39H322l.47-1.34a7.84,7.84,0,0,1,14.82,0l.47,1.34h24.69l.46-1.34a7.87,7.87,0,0,1,7.42-5.27m0-2a9.86,9.86,0,0,0-9.31,6.61H339.22a9.85,9.85,0,0,0-18.6,0h-1.88a9.39,9.39,0,0,0-9.39,9.39V265a9.38,9.38,0,0,0,9.39,9.39h63.52a9.38,9.38,0,0,0,9.39-9.39V201.42a9.39,9.39,0,0,0-9.39-9.39h-2.6a9.83,9.83,0,0,0-9.29-6.61Z"/></svg>