<svg id="Layer_1" data-name="Layer 1" xmlns="http://www.w3.org/2000/svg" xmlns:xlink="http://www.w3.org/1999/xlink" viewBox="0 0 324.9 258.74"><defs><style>.cls-1,.cls-10,.cls-12,.cls-14,.cls-15,.cls-17,.cls-18,.cls-2,.cls-8,.cls-9{fill:none;}.cls-2{stroke:#231f20;stroke-width:0.3px;stroke-dasharray:2 2;}.cls-3{fill:#fff;}.cls-4{fill:#6d6d6d;}.cls-5{opacity:0.29;}.cls-6{fill:#874887;}.cls-7{fill:url(#USGS_19_Land_Inundation);}.cls-10,.cls-12,.cls-8,.cls-9{stroke:#e76bf9;}.cls-10,.cls-12,.cls-14,.cls-15,.cls-17,.cls-18,.cls-8,.cls-9{stroke-miterlimit:10;stroke-width:2px;}.cls-9{stroke-dasharray:10.3 10.3;}.cls-10{stroke-dasharray:14.38 14.38;}.cls-11{fill:#e8a3e8;}.cls-12{stroke-dasharray:11.87 11.87;}.cls-13{opacity:0.63;}.cls-14,.cls-15{stroke:#4be256;}.cls-14,.cls-15,.cls-17,.cls-18{stroke-linecap:round;}.cls-15{stroke-dasharray:12.12 12.12;}.cls-16{fill:#4be256;}.cls-17,.cls-18{stroke:#e04c4c;}.cls-18{stroke-dasharray:12.74 12.74;}.cls-19{fill:#e04c4c;}</style><pattern id="USGS_19_Land_Inundation" data-name="USGS 19 Land Inundation" width="72" height="72" patternTransform="translate(11.22 34.05) rotate(-47.37)" patternUnits="userSpaceOnUse" viewBox="0 0 72 72"><rect class="cls-1" width="72" height="72"/><line class="cls-2" x1="71" y1="71" x2="144.44" y2="71"/><line class="cls-2" x1="71" y1="67" x2="144.44" y2="67"/><line class="cls-2" x1="71" y1="63" x2="144.44" y2="63"/><line class="cls-2" x1="71" y1="59" x2="144.44" y2="59"/><line class="cls-2" x1="71" y1="55" x2="144.44" y2="55"/><line class="cls-2" x1="71" y1="51" x2="144.44" y2="51"/><line class="cls-2" x1="71" y1="47" x2="144.44" y2="47"/><line class="cls-2" x1="71" y1="43" x2="144.44" y2="43"/><line class="cls-2" x1="71" y1="39" x2="144.44" y2="39"/><line class="cls-2" x1="71" y1="35" x2="144.44" y2="35"/><line class="cls-2" x1="71" y1="31" x2="144.44" y2="31"/><line class="cls-2" x1="71" y1="27" x2="144.44" y2="27"/><line class="cls-2" x1="71" y1="23" x2="144.44" y2="23"/><line class="cls-2" x1="71" y1="19" x2="144.44" y2="19"/><line class="cls-2" x1="71" y1="15" x2="144.44" y2="15"/><line class="cls-2" x1="71" y1="11" x2="144.44" y2="11"/><line class="cls-2" x1="71" y1="7" x2="144.44" y2="7"/><line class="cls-2" x1="71" y1="3" x2="144.44" y2="3"/><line class="cls-2" x1="-1" y1="71" x2="72.44" y2="71"/><line class="cls-2" x1="-1" y1="67" x2="72.44" y2="67"/><line class="cls-2" x1="-1" y1="63" x2="72.44" y2="63"/><line class="cls-2" x1="-1" y1="59" x2="72.44" y2="59"/><line class="cls-2" x1="-1" y1="55" x2="72.44" y2="55"/><line class="cls-2" x1="-1" y1="51" x2="72.44" y2="51"/><line class="cls-2" x1="-1" y1="47" x2="72.44" y2="47"/><line class="cls-2" x1="-1" y1="43" x2="72.44" y2="43"/><line class="cls-2" x1="-1" y1="39" x2="72.44" y2="39"/><line class="cls-2" x1="-1" y1="35" x2="72.44" y2="35"/><line class="cls-2" x1="-1" y1="31" x2="72.44" y2="31"/><line class="cls-2" x1="-1" y1="27" x2="72.44" y2="27"/><line class="cls-2" x1="-1" y1="23" x2="72.44" y2="23"/><line class="cls-2" x1="-1" y1="19" x2="72.44" y2="19"/><line class="cls-2" x1="-1" y1="15" x2="72.44" y2="15"/><line class="cls-2" x1="-1" y1="11" x2="72.44" y2="11"/><line class="cls-2" x1="-1" y1="7" x2="72.44" y2="7"/><line class="cls-2" x1="-1" y1="3" x2="72.44" y2="3"/><line class="cls-2" x1="1.04" y1="69" x2="74.48" y2="69"/><line class="cls-2" x1="1.04" y1="65" x2="74.48" y2="65"/><line class="cls-2" x1="1.04" y1="61" x2="74.48" y2="61"/><line class="cls-2" x1="1.04" y1="57" x2="74.48" y2="57"/><line class="cls-2" x1="1.04" y1="53" x2="74.48" y2="53"/><line class="cls-2" x1="1.04" y1="49" x2="74.48" y2="49"/><line class="cls-2" x1="1.04" y1="45" x2="74.48" y2="45"/><line class="cls-2" x1="1.04" y1="41" x2="74.48" y2="41"/><line class="cls-2" x1="1.04" y1="37" x2="74.48" y2="37"/><line class="cls-2" x1="1.04" y1="33" x2="74.48" y2="33"/><line class="cls-2" x1="1.04" y1="29" x2="74.48" y2="29"/><line class="cls-2" x1="1.04" y1="25" x2="74.48" y2="25"/><line class="cls-2" x1="1.04" y1="21" x2="74.48" y2="21"/><line class="cls-2" x1="1.04" y1="17" x2="74.48" y2="17"/><line class="cls-2" x1="1.04" y1="13" x2="74.48" y2="13"/><line class="cls-2" x1="1.04" y1="9" x2="74.48" y2="9"/><line class="cls-2" x1="1.04" y1="5" x2="74.48" y2="5"/><line class="cls-2" x1="1.04" y1="1" x2="74.48" y2="1"/><line class="cls-2" x1="-73" y1="71" x2="0.44" y2="71"/><line class="cls-2" x1="-73" y1="67" x2="0.44" y2="67"/><line class="cls-2" x1="-73" y1="63" x2="0.44" y2="63"/><line class="cls-2" x1="-73" y1="59" x2="0.44" y2="59"/><line class="cls-2" x1="-73" y1="55" x2="0.44" y2="55"/><line class="cls-2" x1="-73" y1="51" x2="0.44" y2="51"/><line class="cls-2" x1="-73" y1="47" x2="0.44" y2="47"/><line class="cls-2" x1="-73" y1="43" x2="0.44" y2="43"/><line class="cls-2" x1="-73" y1="39" x2="0.44" y2="39"/><line class="cls-2" x1="-73" y1="35" x2="0.44" y2="35"/><line class="cls-2" x1="-73" y1="31" x2="0.44" y2="31"/><line class="cls-2" x1="-73" y1="27" x2="0.44" y2="27"/><line class="cls-2" x1="-73" y1="23" x2="0.44" y2="23"/><line class="cls-2" x1="-73" y1="19" x2="0.44" y2="19"/><line class="cls-2" x1="-73" y1="15" x2="0.44" y2="15"/><line class="cls-2" x1="-73" y1="11" x2="0.44" y2="11"/><line class="cls-2" x1="-73" y1="7" x2="0.44" y2="7"/><line class="cls-2" x1="-73" y1="3" x2="0.44" y2="3"/><line class="cls-2" x1="-70.96" y1="69" x2="2.48" y2="69"/><line class="cls-2" x1="-70.96" y1="65" x2="2.48" y2="65"/><line class="cls-2" x1="-70.96" y1="61" x2="2.48" y2="61"/><line class="cls-2" x1="-70.96" y1="57" x2="2.48" y2="57"/><line class="cls-2" x1="-70.96" y1="53" x2="2.48" y2="53"/><line class="cls-2" x1="-70.96" y1="49" x2="2.48" y2="49"/><line class="cls-2" x1="-70.96" y1="45" x2="2.48" y2="45"/><line class="cls-2" x1="-70.96" y1="41" x2="2.48" y2="41"/><line class="cls-2" x1="-70.96" y1="37" x2="2.48" y2="37"/><line class="cls-2" x1="-70.96" y1="33" x2="2.48" y2="33"/><line class="cls-2" x1="-70.96" y1="29" x2="2.48" y2="29"/><line class="cls-2" x1="-70.96" y1="25" x2="2.48" y2="25"/><line class="cls-2" x1="-70.96" y1="21" x2="2.48" y2="21"/><line class="cls-2" x1="-70.96" y1="17" x2="2.48" y2="17"/><line class="cls-2" x1="-70.96" y1="13" x2="2.48" y2="13"/><line class="cls-2" x1="-70.96" y1="9" x2="2.48" y2="9"/><line class="cls-2" x1="-70.96" y1="5" x2="2.48" y2="5"/><line class="cls-2" x1="-70.96" y1="1" x2="2.48" y2="1"/></pattern></defs><title>Artboard 3</title><path class="cls-3" d="M81.73,238.74a8.21,8.21,0,0,1-1.64-.16l-62.32-12.3a8.37,8.37,0,0,1-6.61-9.86l12.3-62.31a8.4,8.4,0,0,1,8.22-6.78,8.83,8.83,0,0,1,1.63.16l2.55.51.36-.62A8.84,8.84,0,0,1,43.83,143a9.12,9.12,0,0,1,1.72.17,8.86,8.86,0,0,1,7.06,7.45l.1.7,11.43,2.26a97.18,97.18,0,0,0,29.71,52.84l1,.87L90,232A8.42,8.42,0,0,1,81.73,238.74Z"/><path class="cls-4" d="M43.83,144h0a7.87,7.87,0,0,1,7.79,6.76l.2,1.41,1.39.27,10.08,2a98.14,98.14,0,0,0,29.88,52.72l.55.5L89,231.78a7.41,7.41,0,0,1-7.24,6,7.83,7.83,0,0,1-1.45-.14L18,225.3a7.38,7.38,0,0,1-5.82-8.69l12.3-62.31a7.4,7.4,0,0,1,7.24-6,7.54,7.54,0,0,1,1.43.14l1.85.37,1.41.28.71-1.24A7.85,7.85,0,0,1,43.83,144m0-2a9.81,9.81,0,0,0-8.47,4.88l-1.85-.37a9.37,9.37,0,0,0-11,7.41l-12.3,62.31a9.38,9.38,0,0,0,7.39,11l62.32,12.3a9.64,9.64,0,0,0,1.84.18,9.39,9.39,0,0,0,9.2-7.58l5-25.24c-.45-.41-.92-.82-1.37-1.24a96.54,96.54,0,0,1-29.54-53L53.6,150.48a9.87,9.87,0,0,0-7.85-8.29,9.76,9.76,0,0,0-1.92-.19Z"/><g class="cls-5"><path class="cls-6" d="M103.22,169.84,95.9,206.92c-.45-.41-.92-.82-1.37-1.24a96.54,96.54,0,0,1-29.54-53l10,2a9.84,9.84,0,0,1,18.24,3.6l2.56.5A9.39,9.39,0,0,1,103.22,169.84Z"/><path class="cls-7" d="M103.22,169.84,95.9,206.92c-.45-.41-.92-.82-1.37-1.24a96.54,96.54,0,0,1-29.54-53l10,2a9.84,9.84,0,0,1,18.24,3.6l2.56.5A9.39,9.39,0,0,1,103.22,169.84Z"/><path class="cls-8" d="M97.06,201l-1.16,5.89c-.45-.41-.92-.82-1.37-1.24-1-.94-2-1.9-3-2.87"/><path class="cls-9" d="M84.65,195.14a96.25,96.25,0,0,1-16.93-31.61"/><path class="cls-8" d="M66.3,158.58c-.5-1.94-.93-3.89-1.31-5.85l10,2a9.83,9.83,0,0,1,4.38-4"/><path class="cls-8" d="M90.74,153a9.9,9.9,0,0,1,2.53,5.34l2.56.5A9.42,9.42,0,0,1,99,160.05"/><line class="cls-10" x1="102.63" y1="172.82" x2="98.45" y2="193.99"/></g><g class="cls-5"><path class="cls-11" d="M225.93,63a97,97,0,0,1-130,144l7.32-37.08a9.39,9.39,0,0,0-7.39-11l-2.56-.5A9.84,9.84,0,0,0,75,154.71l-10-2A97,97,0,0,1,225.93,63Z"/><path class="cls-8" d="M100.51,210.76c-1.56-1.22-3.1-2.51-4.61-3.84L97.06,201"/><path class="cls-10" d="M99.85,186.92l3.37-17.08a9.36,9.36,0,0,0-.11-4.12"/><path class="cls-8" d="M99,160.05a9.42,9.42,0,0,0-3.14-1.24l-2.56-.5A9.9,9.9,0,0,0,90.74,153"/><path class="cls-8" d="M79.41,150.74a9.83,9.83,0,0,0-4.38,4l-10-2c-.38-2-.7-3.94-.95-5.93"/><path class="cls-12" d="M63.23,135a97,97,0,1,1,42.07,79.31"/></g><path class="cls-3" d="M167.28,190.5a8.39,8.39,0,0,1-5.35-1.93L113,148.05a8.4,8.4,0,0,1-1.11-11.81l1.66-2-.37-.61a8.84,8.84,0,0,1,10.66-12.86l.66.24,14.84-17.91-.37-.61a8.85,8.85,0,0,1,7.57-13.43,8.76,8.76,0,0,1,3.09.56l.67.25,2.11-2.55a8.38,8.38,0,0,1,11.81-1.11l48.93,40.52a8.39,8.39,0,0,1,1.11,11.81l-40.52,48.92A8.35,8.35,0,0,1,167.28,190.5Z"/><path class="cls-4" d="M158.89,85.28h0A7.4,7.4,0,0,1,163.6,87l48.92,40.52a7.4,7.4,0,0,1,1,10.4L173,186.83a7.4,7.4,0,0,1-10.41,1l-48.92-40.52a7.37,7.37,0,0,1-1-10.4l1.2-1.45.91-1.1-.74-1.22a7.84,7.84,0,0,1,6.72-11.9,8,8,0,0,1,2.74.49l1.33.5.91-1.1,13.93-16.82.91-1.09-.74-1.22a7.85,7.85,0,0,1,6.71-11.91,8,8,0,0,1,2.74.49l1.34.5.9-1.09,1.66-2a7.36,7.36,0,0,1,5.7-2.68m0-2a9.39,9.39,0,0,0-7.24,3.4l-1.66,2a9.69,9.69,0,0,0-3.44-.62,9.84,9.84,0,0,0-8.42,15L124.2,119.83a9.72,9.72,0,0,0-3.44-.62,9.85,9.85,0,0,0-8.43,14.94l-1.2,1.45a9.39,9.39,0,0,0,1.24,13.22l48.92,40.52a9.4,9.4,0,0,0,13.23-1.24L215,139.18A9.38,9.38,0,0,0,213.79,126L164.87,85.44a9.34,9.34,0,0,0-6-2.16Z"/><g class="cls-13"><line class="cls-14" x1="160.23" y1="134.32" x2="155.56" y2="130.55"/><line class="cls-15" x1="146.12" y1="122.95" x2="75.33" y2="65.92"/><line class="cls-14" x1="70.61" y1="62.12" x2="65.94" y2="58.35"/><polygon class="cls-16" points="71.57 54.44 58.57 52.41 63.31 64.69 71.57 54.44"/></g><line class="cls-14" x1="160.23" y1="134.32" x2="205.05" y2="22.2"/><polygon class="cls-16" points="210.45 26.44 208.57 13.41 198.22 21.55 210.45 26.44"/><g class="cls-13"><line class="cls-17" x1="291.4" y1="57.21" x2="286.23" y2="60.25"/><line class="cls-18" x1="275.24" y1="66.71" x2="170.89" y2="128.05"/><line class="cls-17" x1="165.4" y1="131.28" x2="160.23" y2="134.32"/><polygon class="cls-19" points="286.4 52.51 299.57 52.41 293.07 63.86 286.4 52.51"/></g></svg>