<svg id="Layer_1" data-name="Layer 1" xmlns="http://www.w3.org/2000/svg" viewBox="0 0 541 254"><defs><style>.cls-1,.cls-2,.cls-5{fill:#fff;}.cls-1{stroke:#e5426e;}.cls-1,.cls-5,.cls-6{stroke-linecap:round;}.cls-1,.cls-4,.cls-5,.cls-6{stroke-miterlimit:10;stroke-width:2px;}.cls-3{fill:#6d6d6d;}.cls-4{fill:#545454;stroke:#6d6d6d;}.cls-5,.cls-6{stroke:#4be256;}.cls-6{fill:none;}.cls-7{fill:#4be256;}</style></defs><title>Artboard 2</title><line class="cls-1" x1="89" y1="133" x2="89" y2="56"/><line class="cls-1" x1="51" y1="133" x2="51" y2="56"/><line class="cls-1" x1="126" y1="133" x2="126" y2="56"/><path class="cls-2" d="M56.74,210.34A8.4,8.4,0,0,1,48.35,202V138.42A8.4,8.4,0,0,1,56.74,130h2.59l.24-.67a8.85,8.85,0,0,1,16.71,0l.23.67H99.77l.24-.67a8.85,8.85,0,0,1,16.71,0l.23.67h3.31a8.4,8.4,0,0,1,8.39,8.39V202a8.4,8.4,0,0,1-8.39,8.39Z"/><path class="cls-3" d="M108.37,124.42a7.83,7.83,0,0,1,7.4,5.27l.47,1.34h4a7.4,7.4,0,0,1,7.39,7.39V202a7.4,7.4,0,0,1-7.39,7.39H56.74A7.4,7.4,0,0,1,49.35,202V138.42A7.4,7.4,0,0,1,56.74,131H60l.47-1.34a7.84,7.84,0,0,1,14.82,0L75.8,131h24.69l.46-1.34a7.87,7.87,0,0,1,7.42-5.27m0-2A9.86,9.86,0,0,0,99.06,129H77.22a9.85,9.85,0,0,0-18.6,0H56.74a9.39,9.39,0,0,0-9.39,9.39V202a9.38,9.38,0,0,0,9.39,9.39h63.52a9.38,9.38,0,0,0,9.39-9.39V138.42a9.39,9.39,0,0,0-9.39-9.39h-2.6a9.83,9.83,0,0,0-9.29-6.61Z"/><rect class="cls-4" x="40" y="42" width="97" height="31" rx="8.76" ry="8.76"/><line class="cls-1" x1="272" y1="133" x2="272" y2="56"/><line class="cls-5" x1="234" y1="133" x2="234" y2="56"/><line class="cls-1" x1="309" y1="133" x2="309" y2="56"/><path class="cls-2" d="M239.74,210.34a8.4,8.4,0,0,1-8.39-8.39V138.42a8.4,8.4,0,0,1,8.39-8.39h2.59l.24-.67a8.85,8.85,0,0,1,16.71,0l.23.67h23.26l.24-.67a8.85,8.85,0,0,1,16.71,0l.23.67h3.31a8.4,8.4,0,0,1,8.39,8.39V202a8.4,8.4,0,0,1-8.39,8.39Z"/><path class="cls-3" d="M291.37,124.42a7.83,7.83,0,0,1,7.4,5.27l.47,1.34h4a7.4,7.4,0,0,1,7.39,7.39V202a7.4,7.4,0,0,1-7.39,7.39H239.74a7.4,7.4,0,0,1-7.39-7.39V138.42a7.4,7.4,0,0,1,7.39-7.39H243l.47-1.34a7.84,7.84,0,0,1,14.82,0l.47,1.34h24.69l.46-1.34a7.87,7.87,0,0,1,7.42-5.27m0-2a9.86,9.86,0,0,0-9.31,6.61H260.22a9.85,9.85,0,0,0-18.6,0h-1.88a9.39,9.39,0,0,0-9.39,9.39V202a9.38,9.38,0,0,0,9.39,9.39h63.52a9.38,9.38,0,0,0,9.39-9.39V138.42a9.39,9.39,0,0,0-9.39-9.39h-2.6a9.83,9.83,0,0,0-9.29-6.61Z"/><rect class="cls-4" x="249" y="42" width="71" height="31" rx="8.76" ry="8.76"/><line class="cls-5" x1="457" y1="133" x2="457" y2="56"/><line class="cls-1" x1="419" y1="133" x2="419" y2="56"/><line class="cls-5" x1="494" y1="133" x2="494" y2="56"/><path class="cls-2" d="M424.74,210.34a8.4,8.4,0,0,1-8.39-8.39V138.42a8.4,8.4,0,0,1,8.39-8.39h2.59l.24-.67a8.85,8.85,0,0,1,16.71,0l.23.67h23.26l.24-.67a8.85,8.85,0,0,1,16.71,0l.23.67h3.31a8.4,8.4,0,0,1,8.39,8.39V202a8.4,8.4,0,0,1-8.39,8.39Z"/><path class="cls-3" d="M476.37,124.42a7.83,7.83,0,0,1,7.4,5.27l.47,1.34h4a7.4,7.4,0,0,1,7.39,7.39V202a7.4,7.4,0,0,1-7.39,7.39H424.74a7.4,7.4,0,0,1-7.39-7.39V138.42a7.4,7.4,0,0,1,7.39-7.39H428l.47-1.34a7.84,7.84,0,0,1,14.82,0l.47,1.34h24.69l.46-1.34a7.87,7.87,0,0,1,7.42-5.27m0-2a9.86,9.86,0,0,0-9.31,6.61H445.22a9.85,9.85,0,0,0-18.6,0h-1.88a9.39,9.39,0,0,0-9.39,9.39V202a9.38,9.38,0,0,0,9.39,9.39h63.52a9.38,9.38,0,0,0,9.39-9.39V138.42a9.39,9.39,0,0,0-9.39-9.39h-2.6a9.83,9.83,0,0,0-9.29-6.61Z"/><rect class="cls-4" x="408" y="42" width="36" height="31" rx="8.76" ry="8.76"/><line class="cls-1" x1="276" y1="69" x2="268" y2="77"/><line class="cls-1" x1="268" y1="69" x2="276" y2="77"/><line class="cls-5" x1="238" y1="42" x2="234" y2="50"/><line class="cls-5" x1="230" y1="46" x2="234" y2="50"/><line class="cls-5" x1="498" y1="42" x2="494" y2="50"/><line class="cls-5" x1="490" y1="46" x2="494" y2="50"/><line class="cls-5" x1="461" y1="42" x2="457" y2="50"/><line class="cls-5" x1="453" y1="46" x2="457" y2="50"/><line class="cls-1" x1="313" y1="69" x2="305" y2="77"/><line class="cls-1" x1="305" y1="69" x2="313" y2="77"/><line class="cls-1" x1="130" y1="69" x2="122" y2="77"/><line class="cls-1" x1="122" y1="69" x2="130" y2="77"/><line class="cls-1" x1="93" y1="69" x2="85" y2="77"/><line class="cls-1" x1="85" y1="69" x2="93" y2="77"/><line class="cls-1" x1="55" y1="69" x2="47" y2="77"/><line class="cls-1" x1="47" y1="69" x2="55" y2="77"/><line class="cls-1" x1="423" y1="69" x2="415" y2="77"/><line class="cls-1" x1="415" y1="69" x2="423" y2="77"/><line class="cls-6" x1="89" y1="153" x2="89" y2="173.68"/><polygon class="cls-7" points="84.61 172.4 89 180 93.39 172.4 84.61 172.4"/><path class="cls-6" d="M272,186V167a8,8,0,0,0-8-8h-3.69"/><polygon class="cls-7" points="261.6 154.61 254 159 261.6 163.39 261.6 154.61"/><path class="cls-6" d="M457,186v-1.93a37.69,37.69,0,0,1,5.59-19.75"/><polygon class="cls-7" points="465.65 167.77 466 159 458.23 163.08 465.65 167.77"/></svg>