<svg id="Layer_1" data-name="Layer 1" xmlns="http://www.w3.org/2000/svg" viewBox="0 0 376.65 376.65"><defs><style>.cls-1,.cls-2{fill:#fff;}.cls-1{stroke:#ef7fe9;stroke-linecap:round;}.cls-1,.cls-4,.cls-5,.cls-6,.cls-7,.cls-8{stroke-miterlimit:10;}.cls-1,.cls-5,.cls-6,.cls-7,.cls-8{stroke-width:2px;}.cls-3{fill:#6d6d6d;}.cls-4,.cls-5,.cls-6,.cls-7,.cls-8{fill:none;}.cls-4{stroke:#b2b2b2;stroke-width:22px;opacity:0.38;}.cls-5,.cls-6{stroke:#d645c9;}.cls-6{stroke-dasharray:11.27 11.27;}.cls-7,.cls-8{stroke:#4d4d4d;}.cls-8{stroke-dasharray:11.36 11.36;}.cls-9{font-size:13px;fill:#7f497f;font-family:OpenSans-Bold, Open Sans;font-weight:700;letter-spacing:0.04em;}</style></defs><title>Artboard 4</title><line class="cls-1" x1="207.33" y1="170.33" x2="116.33" y2="161.33"/><line class="cls-1" x1="99.33" y1="58.33" x2="39.33" y2="128.33"/><line class="cls-1" x1="180.33" y1="99.33" x2="116.33" y2="161.33"/><line class="cls-1" x1="314.33" y1="242.33" x2="223.33" y2="263.33"/><line class="cls-1" x1="223.33" y1="263.33" x2="65.33" y2="248.33"/><line class="cls-1" x1="207.33" y1="170.33" x2="180.33" y2="99.33"/><line class="cls-1" x1="207.33" y1="170.33" x2="99.33" y2="58.33"/><line class="cls-1" x1="207.33" y1="170.33" x2="39.33" y2="128.33"/><line class="cls-1" x1="99.33" y1="58.33" x2="116.33" y2="161.33"/><line class="cls-1" x1="274.33" y1="78.33" x2="207.33" y2="170.33"/><line class="cls-1" x1="207.33" y1="170.33" x2="223.33" y2="263.33"/><line class="cls-1" x1="207.33" y1="170.33" x2="65.33" y2="248.33"/><line class="cls-1" x1="207.33" y1="170.33" x2="314.33" y2="242.33"/><line class="cls-1" x1="207.33" y1="170.33" x2="280.33" y2="313.33"/><line class="cls-1" x1="207.33" y1="170.33" x2="129.33" y2="302.33"/><line class="cls-1" x1="116.33" y1="161.33" x2="129.33" y2="302.33"/><line class="cls-1" x1="39.33" y1="128.33" x2="116.33" y2="161.33"/><line class="cls-1" x1="99.33" y1="58.33" x2="180.33" y2="99.33"/><line class="cls-1" x1="223.33" y1="263.33" x2="280.33" y2="313.33"/><line class="cls-1" x1="180.33" y1="99.33" x2="39.33" y2="128.33"/><line class="cls-1" x1="314.33" y1="242.33" x2="280.33" y2="313.33"/><line class="cls-1" x1="274.33" y1="78.33" x2="180.33" y2="99.33"/><line class="cls-1" x1="116.33" y1="161.33" x2="65.33" y2="248.33"/><line class="cls-1" x1="129.33" y1="302.33" x2="65.33" y2="248.33"/><line class="cls-1" x1="223.33" y1="263.33" x2="129.33" y2="302.33"/><path class="cls-2" d="M38.11,148.34a2.72,2.72,0,0,1-2.09-1L20.13,128a2.69,2.69,0,0,1,.37-3.79l19.32-15.9a2.71,2.71,0,0,1,3.8.37l.92,1.12.67-.25a3,3,0,0,1,1-.17,2.87,2.87,0,0,1,2.46,4.37l-.37.61,6.37,7.74.67-.24a2.76,2.76,0,0,1,1-.18,2.87,2.87,0,0,1,2.46,4.37l-.37.61,1.1,1.34a2.68,2.68,0,0,1,.6,2,2.64,2.64,0,0,1-1,1.82L39.82,147.72A2.63,2.63,0,0,1,38.11,148.34Z"/><path class="cls-3" d="M41.53,108.73a1.66,1.66,0,0,1,1.31.62l.47.57.91,1.1,1.34-.5a2,2,0,0,1,.64-.11,1.88,1.88,0,0,1,1.61,2.85l-.74,1.22.9,1.1,5.47,6.64.9,1.1,1.33-.5a2.06,2.06,0,0,1,.65-.11,1.86,1.86,0,0,1,1.45.68,1.88,1.88,0,0,1,.16,2.17l-.75,1.22.91,1.1.65.79a1.7,1.7,0,0,1-.23,2.39L39.19,147a1.69,1.69,0,0,1-2.39-.23L20.9,127.4a1.69,1.69,0,0,1-.38-1.24,1.66,1.66,0,0,1,.61-1.15l19.32-15.9a1.67,1.67,0,0,1,1.08-.38m0-2a3.66,3.66,0,0,0-2.35.84L19.86,123.46a3.7,3.7,0,0,0-.5,5.21L35.25,148a3.71,3.71,0,0,0,5.21.51l19.32-15.9a3.69,3.69,0,0,0,.5-5.2l-.65-.79A3.88,3.88,0,0,0,55,121l-5.47-6.65a3.87,3.87,0,0,0-4.65-5.65l-.47-.58a3.71,3.71,0,0,0-2.86-1.34Z"/><path class="cls-2" d="M110,74.84a3.05,3.05,0,0,1-.52,0L84.9,70a2.7,2.7,0,0,1-2.13-3.17l.28-1.42L82.43,65a2.88,2.88,0,0,1,1-5.34l.71-.1,1.93-9.83-.62-.36a2.88,2.88,0,0,1,1-5.34l.71-.1.33-1.7a2.71,2.71,0,0,1,2.64-2.18,3.17,3.17,0,0,1,.53,0l24.55,4.82a2.71,2.71,0,0,1,2.13,3.17l-4.82,24.55A2.71,2.71,0,0,1,110,74.84Z"/><path class="cls-3" d="M90.23,41.07h0a1.84,1.84,0,0,1,.33,0l24.56,4.82a1.71,1.71,0,0,1,1.34,2l-4.82,24.55A1.71,1.71,0,0,1,110,73.84a1.84,1.84,0,0,1-.33,0L85.09,69a1.7,1.7,0,0,1-1.34-2l.14-.73.28-1.4-1.23-.72a1.88,1.88,0,0,1-.9-2,1.91,1.91,0,0,1,1.58-1.5l1.41-.2.28-1.39L87,50.64l.28-1.4L86,48.52A1.88,1.88,0,0,1,86.69,45l1.41-.19.27-1.4.2-1a1.71,1.71,0,0,1,1.66-1.37m0-2a3.69,3.69,0,0,0-3.62,3l-.2,1A3.88,3.88,0,0,0,85,50.25l-1.66,8.44a3.88,3.88,0,0,0-1.41,7.19l-.14.73A3.69,3.69,0,0,0,84.71,71l24.55,4.82a3.49,3.49,0,0,0,.71.07,3.7,3.7,0,0,0,3.63-3l4.82-24.55A3.7,3.7,0,0,0,115.5,44L91,39.14a3.51,3.51,0,0,0-.72-.07Z"/><path class="cls-2" d="M65.77,268.52a2.66,2.66,0,0,1-1.9-.79L46.15,250.06a2.71,2.71,0,0,1,0-3.82l1-1-.31-.64a2.87,2.87,0,0,1,3.84-3.85l.64.31,7.08-7.1-.31-.64A2.87,2.87,0,0,1,62,229.45l.64.31,1.22-1.23a2.69,2.69,0,0,1,3.82,0l17.71,17.67a2.7,2.7,0,0,1,0,3.82L67.68,267.72A2.7,2.7,0,0,1,65.77,268.52Z"/><path class="cls-3" d="M65.72,228.73h0a1.7,1.7,0,0,1,1.2.5L84.64,246.9a1.7,1.7,0,0,1,0,2.4L67,267a1.72,1.72,0,0,1-1.21.5,1.7,1.7,0,0,1-1.2-.5L46.86,249.35a1.7,1.7,0,0,1,0-2.4l.53-.52,1-1-.62-1.28a1.87,1.87,0,0,1,2.5-2.51l1.29.62,1-1,6.07-6.09,1-1L59,232.86a1.87,1.87,0,0,1,2.5-2.51l1.28.62,1-1,.72-.73a1.7,1.7,0,0,1,1.2-.5m0-2a3.72,3.72,0,0,0-2.62,1.09l-.72.73a3.83,3.83,0,0,0-1.68-.39,3.88,3.88,0,0,0-3.49,5.57l-6.08,6.1a3.8,3.8,0,0,0-1.68-.39A3.88,3.88,0,0,0,46,245l-.52.53a3.7,3.7,0,0,0,0,5.23l17.72,17.67a3.69,3.69,0,0,0,5.23,0l17.67-17.72a3.7,3.7,0,0,0,0-5.23L68.33,227.81a3.67,3.67,0,0,0-2.61-1.08Z"/><path class="cls-2" d="M135.93,321.51a2.57,2.57,0,0,1-1.05-.22l-23-9.79a2.7,2.7,0,0,1-1.42-3.54l9.79-23a2.7,2.7,0,0,1,3.53-1.43l1.34.57.48-.53a2.87,2.87,0,0,1,2.13-.94,2.93,2.93,0,0,1,1.13.23,2.87,2.87,0,0,1,1.74,2.84l0,.71,9.23,3.93.48-.53a2.88,2.88,0,0,1,2.13-1,2.93,2.93,0,0,1,1.13.23,2.86,2.86,0,0,1,1.74,2.84l0,.71,1.6.68a2.71,2.71,0,0,1,1.43,3.54l-9.79,23A2.7,2.7,0,0,1,135.93,321.51Z"/><path class="cls-3" d="M127.7,283.61a1.83,1.83,0,0,1,.73.15,1.86,1.86,0,0,1,1.14,1.85l-.09,1.42,1.31.56L138.7,291l1.31.55,1-1.05a1.88,1.88,0,0,1,1.39-.62,1.92,1.92,0,0,1,.74.15,1.88,1.88,0,0,1,1.13,1.85l-.09,1.43,1.31.55.94.4a1.69,1.69,0,0,1,.91.93,1.72,1.72,0,0,1,0,1.3l-9.79,23a1.7,1.7,0,0,1-1.57,1,1.51,1.51,0,0,1-.66-.14l-23-9.79a1.67,1.67,0,0,1-.89-2.22l9.79-23a1.68,1.68,0,0,1,1.56-1,1.65,1.65,0,0,1,.66.13l.69.29,1.31.56,1-1.06a1.89,1.89,0,0,1,1.39-.61m0-2a3.87,3.87,0,0,0-2.87,1.27l-.68-.29a3.75,3.75,0,0,0-1.45-.29,3.68,3.68,0,0,0-3.4,2.25l-9.8,23a3.7,3.7,0,0,0,2,4.85l23,9.8a3.71,3.71,0,0,0,4.85-2l9.79-23a3.7,3.7,0,0,0-2-4.85l-.94-.4a3.87,3.87,0,0,0-6.74-2.86l-7.92-3.37a3.88,3.88,0,0,0-3.87-4.14Z"/><path class="cls-2" d="M224.33,283.53a2.69,2.69,0,0,1-1.75-.65l-19-16.28a2.69,2.69,0,0,1-.29-3.8l16.28-19a2.71,2.71,0,0,1,3.81-.29l1.1.94.62-.36a2.89,2.89,0,0,1,1.45-.39,2.94,2.94,0,0,1,1.87.69,2.89,2.89,0,0,1,.8,3.24l-.26.66,7.61,6.53.62-.36a2.84,2.84,0,0,1,1.45-.39,2.88,2.88,0,0,1,2.68,3.93l-.26.66,1.31,1.13a2.7,2.7,0,0,1,.3,3.8l-16.29,19A2.68,2.68,0,0,1,224.33,283.53Z"/><path class="cls-3" d="M221.62,243.86a1.68,1.68,0,0,1,1.11.41l.56.48,1.08.92,1.23-.71a1.86,1.86,0,0,1,2.16.19,1.89,1.89,0,0,1,.53,2.12l-.52,1.32,1.08.93,6.53,5.59,1.08.93,1.23-.72a2,2,0,0,1,.95-.25,1.88,1.88,0,0,1,1.75,2.56l-.53,1.32,1.09.93.77.67a1.65,1.65,0,0,1,.59,1.16,1.67,1.67,0,0,1-.4,1.23l-16.29,19a1.69,1.69,0,0,1-2.39.18l-19-16.28a1.75,1.75,0,0,1-.59-1.16,1.68,1.68,0,0,1,.41-1.23l16.28-19a1.7,1.7,0,0,1,1.29-.59m0-2a3.68,3.68,0,0,0-2.81,1.29l-16.28,19a3.7,3.7,0,0,0,.4,5.22l19,16.28a3.69,3.69,0,0,0,5.21-.4l16.29-19A3.68,3.68,0,0,0,243,259l-.77-.67a3.87,3.87,0,0,0-5.56-4.76l-6.54-5.6a3.88,3.88,0,0,0-5.56-4.77l-.56-.48a3.69,3.69,0,0,0-2.41-.89Z"/><path class="cls-2" d="M284.39,332.27a3.25,3.25,0,0,1-.69-.08,2.91,2.91,0,0,1-2.18-2.54l-.06-.7-9.73-2.43-.39.59a2.88,2.88,0,0,1-2.4,1.31,2.74,2.74,0,0,1-.7-.09,2.87,2.87,0,0,1-2.17-2.53l-.06-.71-1.69-.42a2.7,2.7,0,0,1-2-3.27l6.05-24.28a2.7,2.7,0,0,1,2.62-2,2.36,2.36,0,0,1,.65.08l24.28,6a2.69,2.69,0,0,1,1.66,1.23,2.65,2.65,0,0,1,.3,2l-6.05,24.28a2.69,2.69,0,0,1-2.61,2.05,2.91,2.91,0,0,1-.66-.08l-1.41-.36-.39.6A2.91,2.91,0,0,1,284.39,332.27Z"/><path class="cls-3" d="M271,296.08h0a1.48,1.48,0,0,1,.41.05l24.28,6.05a1.68,1.68,0,0,1,1,.78,1.64,1.64,0,0,1,.19,1.28l-6.05,24.28a1.7,1.7,0,0,1-1.64,1.29,1.52,1.52,0,0,1-.42-.06l-.72-.17-1.38-.35-.78,1.19a1.87,1.87,0,0,1-1.57.85,2.3,2.3,0,0,1-.45,0,1.89,1.89,0,0,1-1.42-1.66l-.13-1.41L281,327.8l-8.34-2.08-1.38-.34-.78,1.19a1.92,1.92,0,0,1-1.57.85,1.76,1.76,0,0,1-.46-.06,1.85,1.85,0,0,1-1.41-1.65l-.13-1.42-1.38-.34-1-.25a1.66,1.66,0,0,1-1-.77,1.71,1.71,0,0,1-.19-1.29l6.05-24.27a1.7,1.7,0,0,1,1.65-1.29m0-2a3.7,3.7,0,0,0-3.59,2.8l-6.05,24.28a3.69,3.69,0,0,0,2.69,4.48l1,.25A3.87,3.87,0,0,0,268,329.3a3.79,3.79,0,0,0,.94.12,3.88,3.88,0,0,0,3.24-1.76l8.35,2.08a3.88,3.88,0,0,0,2.92,3.42,3.83,3.83,0,0,0,.94.11,3.89,3.89,0,0,0,3.25-1.75l.72.18a4,4,0,0,0,.9.11,3.71,3.71,0,0,0,3.58-2.81l6.05-24.27a3.7,3.7,0,0,0-2.69-4.49l-24.28-6.05a3.44,3.44,0,0,0-.89-.11Z"/><path class="cls-2" d="M311.75,261.42a2.7,2.7,0,0,1-2.14-1.06l-15.26-19.82a2.69,2.69,0,0,1,.49-3.78l19.82-15.27a2.71,2.71,0,0,1,3.79.49l15.26,19.83a2.69,2.69,0,0,1-.49,3.78l-1.15.89.23.67a2.9,2.9,0,0,1-1,3.19,2.87,2.87,0,0,1-3.33.13l-.6-.39-7.94,6.12.23.67a2.9,2.9,0,0,1-1,3.19,2.87,2.87,0,0,1-3.33.13l-.6-.39-1.37,1.06A2.74,2.74,0,0,1,311.75,261.42Z"/><path class="cls-3" d="M316.31,221.93a1.67,1.67,0,0,1,1.34.66l15.27,19.83a1.66,1.66,0,0,1,.34,1.25,1.71,1.71,0,0,1-.65,1.13l-.59.45-1.12.87.45,1.35a1.87,1.87,0,0,1-2.81,2.16l-1.19-.78-1.13.87L319.4,255l-1.12.87.45,1.35a1.89,1.89,0,0,1-.64,2.08,1.86,1.86,0,0,1-2.17.08l-1.19-.78-1.13.87-.81.62a1.68,1.68,0,0,1-2.38-.31l-15.27-19.82a1.7,1.7,0,0,1,.31-2.38l19.82-15.27a1.69,1.69,0,0,1,1-.35m0-2a3.68,3.68,0,0,0-2.26.77L294.23,236a3.68,3.68,0,0,0-.67,5.18L308.82,261a3.69,3.69,0,0,0,5.19.68l.81-.63a3.88,3.88,0,0,0,2.13.64,3.81,3.81,0,0,0,2.36-.81,3.88,3.88,0,0,0,1.31-4.3l6.82-5.25a3.87,3.87,0,0,0,5.8-4.47l.59-.45a3.7,3.7,0,0,0,.68-5.18l-15.27-19.83a3.72,3.72,0,0,0-2.93-1.44Z"/><path class="cls-2" d="M271.75,98.42a2.7,2.7,0,0,1-2.14-1.06L254.35,77.54a2.69,2.69,0,0,1,.49-3.78l19.82-15.27a2.71,2.71,0,0,1,3.79.49l15.26,19.83a2.69,2.69,0,0,1-.49,3.78l-1.15.89.23.67a2.9,2.9,0,0,1-1,3.19,2.87,2.87,0,0,1-3.33.13l-.6-.39-7.94,6.12.23.67a2.9,2.9,0,0,1-1,3.19,2.87,2.87,0,0,1-3.33.13l-.6-.39-1.37,1.06A2.74,2.74,0,0,1,271.75,98.42Z"/><path class="cls-3" d="M276.31,58.93a1.67,1.67,0,0,1,1.34.66l15.27,19.83a1.66,1.66,0,0,1,.34,1.25,1.71,1.71,0,0,1-.65,1.13l-.59.45-1.12.87.45,1.35a1.87,1.87,0,0,1-2.81,2.16l-1.19-.78-1.13.87L279.4,92l-1.12.87.45,1.35a1.89,1.89,0,0,1-.64,2.08,1.86,1.86,0,0,1-2.17.08l-1.19-.78-1.13.87-.81.62a1.68,1.68,0,0,1-2.38-.31L255.14,76.93a1.7,1.7,0,0,1,.31-2.38l19.82-15.27a1.69,1.69,0,0,1,1-.35m0-2a3.68,3.68,0,0,0-2.26.77L254.23,73a3.68,3.68,0,0,0-.67,5.18L268.82,98a3.69,3.69,0,0,0,5.19.68l.81-.63a3.88,3.88,0,0,0,2.13.64,3.81,3.81,0,0,0,2.36-.81,3.88,3.88,0,0,0,1.31-4.3l6.82-5.25a3.87,3.87,0,0,0,5.8-4.47l.59-.45a3.7,3.7,0,0,0,.68-5.18L279.24,58.37a3.72,3.72,0,0,0-2.93-1.44Z"/><path class="cls-2" d="M210.81,190.22a2.67,2.67,0,0,1-1.52-.47l-1.2-.82-.57.42a2.92,2.92,0,0,1-1.71.56,2.87,2.87,0,0,1-2.78-3.63l.19-.69L195,179.92l-.57.43a3,3,0,0,1-1.72.56,2.89,2.89,0,0,1-2.77-3.63l.19-.69-1.43-1a2.7,2.7,0,0,1-.71-3.75l14.14-20.64a2.71,2.71,0,0,1,2.23-1.18,2.65,2.65,0,0,1,1.52.47l20.65,14.14a2.71,2.71,0,0,1,.7,3.75L213,189.05A2.71,2.71,0,0,1,210.81,190.22Z"/><path class="cls-3" d="M204.31,151h0a1.65,1.65,0,0,1,1,.3l20.64,14.14a1.7,1.7,0,0,1,.44,2.36l-14.14,20.64a1.69,1.69,0,0,1-1.4.74,1.68,1.68,0,0,1-1-.3l-.61-.42-1.17-.8-1.15.85a1.91,1.91,0,0,1-1.11.36,1.82,1.82,0,0,1-1.06-.33,1.87,1.87,0,0,1-.75-2l.37-1.37-1.17-.81-7.1-4.86-1.17-.8-1.15.84a1.88,1.88,0,0,1-1.12.37,1.92,1.92,0,0,1-1.06-.33,1.87,1.87,0,0,1-.75-2l.38-1.37-1.17-.81-.85-.58a1.67,1.67,0,0,1-.71-1.09,1.69,1.69,0,0,1,.27-1.27l14.14-20.64a1.71,1.71,0,0,1,1.4-.74m0-2a3.68,3.68,0,0,0-3.05,1.61l-14.14,20.64a3.69,3.69,0,0,0,1,5.14l.85.58a3.87,3.87,0,0,0,6,4.14l7.1,4.86a3.87,3.87,0,0,0,6,4.14l.61.42a3.69,3.69,0,0,0,5.14-1L228,169a3.69,3.69,0,0,0-1-5.14L206.4,149.69a3.68,3.68,0,0,0-2.09-.65Z"/><path class="cls-2" d="M115,180.6a2.69,2.69,0,0,1-2-.89L96.28,161.1a2.68,2.68,0,0,1-.69-1.95,2.72,2.72,0,0,1,.89-1.86l18.61-16.73a2.73,2.73,0,0,1,1.8-.69,2.7,2.7,0,0,1,2,.9l16.73,18.6a2.74,2.74,0,0,1,.69,1.95,2.7,2.7,0,0,1-.89,1.86l-1.09,1,.28.65a2.88,2.88,0,0,1-2.65,4,2.8,2.8,0,0,1-1.39-.36l-.62-.34-7.46,6.7.28.66a2.88,2.88,0,0,1-2.66,4,2.85,2.85,0,0,1-1.39-.36l-.62-.34-1.29,1.16A2.68,2.68,0,0,1,115,180.6Z"/><path class="cls-3" d="M116.89,140.87a1.7,1.7,0,0,1,1.27.56L134.88,160a1.7,1.7,0,0,1-.12,2.4l-.55.49-1.06,1,.55,1.31a1.88,1.88,0,0,1-1.73,2.6,1.92,1.92,0,0,1-.91-.23l-1.24-.69-1.06,1-6.4,5.75-1.06,1,.55,1.31a1.88,1.88,0,0,1-2.63,2.37l-1.25-.69-1.06.95-.76.69a1.68,1.68,0,0,1-1.13.43,1.7,1.7,0,0,1-1.27-.56L97,160.43a1.7,1.7,0,0,1,.12-2.4l18.61-16.72a1.69,1.69,0,0,1,1.13-.44m0-2a3.67,3.67,0,0,0-2.47.95l-18.6,16.73a3.69,3.69,0,0,0-.28,5.22l16.73,18.61a3.7,3.7,0,0,0,5.22.27l.76-.68a3.88,3.88,0,0,0,5.45-4.9l6.39-5.75a3.88,3.88,0,0,0,5.45-4.9l.55-.49a3.7,3.7,0,0,0,.28-5.23l-16.73-18.6a3.65,3.65,0,0,0-2.75-1.23Z"/><path class="cls-2" d="M174.75,117.92a2.72,2.72,0,0,1-2.46-1.59l-.6-1.33-.71.07h-.25a2.88,2.88,0,0,1-2-5l.52-.49-4.12-9.14-.71.06-.26,0a2.88,2.88,0,0,1-2-5l.52-.49L162,93.52A2.68,2.68,0,0,1,163.36,90l22.81-10.29a2.63,2.63,0,0,1,1.1-.24A2.71,2.71,0,0,1,189.73,81L200,103.82a2.7,2.7,0,0,1-1.35,3.57l-22.81,10.29A2.64,2.64,0,0,1,174.75,117.92Z"/><path class="cls-3" d="M187.27,80.42a1.7,1.7,0,0,1,1.55,1l10.29,22.8a1.72,1.72,0,0,1,0,1.3,1.7,1.7,0,0,1-.89,1l-22.81,10.28a1.56,1.56,0,0,1-.7.16,1.72,1.72,0,0,1-1.55-1l-.3-.67-.59-1.3-1.42.13h-.16a1.88,1.88,0,0,1-1.29-3.25l1-1-.58-1.3-3.54-7.84-.58-1.3-1.42.13h-.17a1.89,1.89,0,0,1-1.71-1.11,1.86,1.86,0,0,1,.42-2.13l1-1-.58-1.3-.42-.93a1.69,1.69,0,0,1,.85-2.25l22.81-10.28a1.52,1.52,0,0,1,.69-.16m0-2a3.75,3.75,0,0,0-1.52.33L163,89a3.69,3.69,0,0,0-1.86,4.89l.43.93a3.88,3.88,0,0,0,2.66,6.7l.35,0,3.53,7.84a3.89,3.89,0,0,0,2.67,6.7l.34,0,.31.68a3.69,3.69,0,0,0,4.89,1.85l22.81-10.29a3.7,3.7,0,0,0,1.85-4.89L190.65,80.6a3.71,3.71,0,0,0-3.38-2.18Z"/><rect class="cls-4" x="200.33" y="200.33" width="157" height="157"/><rect class="cls-4" x="200.33" y="19.33" width="157" height="157"/><rect class="cls-4" x="19.33" y="19.33" width="157" height="157"/><rect class="cls-4" x="19.33" y="200.33" width="157" height="157"/><polyline class="cls-5" points="188.32 182.32 188.32 188.32 182.32 188.32"/><line class="cls-6" x1="171.06" y1="188.33" x2="18.96" y2="188.33"/><polyline class="cls-5" points="13.32 188.32 7.33 188.32 7.33 182.32"/><line class="cls-6" x1="7.33" y1="171.06" x2="7.33" y2="18.96"/><polyline class="cls-5" points="7.33 13.32 7.33 7.33 13.32 7.33"/><line class="cls-6" x1="24.59" y1="7.33" x2="176.69" y2="7.33"/><polyline class="cls-5" points="182.32 7.33 188.32 7.33 188.32 13.32"/><line class="cls-6" x1="188.33" y1="24.59" x2="188.33" y2="176.69"/><polyline class="cls-5" points="369.32 182.32 369.32 188.32 363.32 188.32"/><line class="cls-6" x1="352.06" y1="188.33" x2="199.96" y2="188.33"/><polyline class="cls-5" points="194.32 188.32 188.32 188.32 188.32 182.32"/><line class="cls-6" x1="188.33" y1="171.06" x2="188.33" y2="18.96"/><polyline class="cls-5" points="188.32 13.32 188.32 7.33 194.32 7.33"/><line class="cls-6" x1="205.59" y1="7.33" x2="357.69" y2="7.33"/><polyline class="cls-5" points="363.32 7.33 369.32 7.33 369.32 13.32"/><line class="cls-6" x1="369.33" y1="24.59" x2="369.33" y2="176.69"/><polyline class="cls-7" points="347.32 160.32 347.32 166.32 341.32 166.32"/><line class="cls-8" x1="329.96" y1="166.33" x2="222.01" y2="166.33"/><polyline class="cls-7" points="216.32 166.32 210.32 166.32 210.32 160.32"/><line class="cls-8" x1="210.33" y1="148.96" x2="210.33" y2="41.01"/><polyline class="cls-7" points="210.32 35.33 210.32 29.32 216.32 29.32"/><line class="cls-8" x1="227.69" y1="29.33" x2="335.64" y2="29.33"/><polyline class="cls-7" points="341.32 29.32 347.32 29.32 347.32 35.33"/><line class="cls-8" x1="347.33" y1="46.69" x2="347.33" y2="154.64"/><polyline class="cls-7" points="347.32 341.32 347.32 347.32 341.32 347.32"/><line class="cls-8" x1="329.96" y1="347.33" x2="222.01" y2="347.33"/><polyline class="cls-7" points="216.32 347.32 210.32 347.32 210.32 341.32"/><line class="cls-8" x1="210.33" y1="329.96" x2="210.33" y2="222.01"/><polyline class="cls-7" points="210.32 216.32 210.32 210.32 216.32 210.32"/><line class="cls-8" x1="227.69" y1="210.33" x2="335.64" y2="210.33"/><polyline class="cls-7" points="341.32 210.32 347.32 210.32 347.32 216.32"/><line class="cls-8" x1="347.33" y1="227.69" x2="347.33" y2="335.64"/><polyline class="cls-7" points="166.32 160.32 166.32 166.32 160.32 166.32"/><line class="cls-8" x1="148.96" y1="166.33" x2="41.01" y2="166.33"/><polyline class="cls-7" points="35.33 166.32 29.32 166.32 29.32 160.32"/><line class="cls-8" x1="29.33" y1="148.96" x2="29.33" y2="41.01"/><polyline class="cls-7" points="29.32 35.33 29.32 29.32 35.33 29.32"/><line class="cls-8" x1="46.69" y1="29.33" x2="154.64" y2="29.33"/><polyline class="cls-7" points="160.32 29.32 166.32 29.32 166.32 35.33"/><line class="cls-8" x1="166.33" y1="46.69" x2="166.33" y2="154.64"/><polyline class="cls-7" points="166.32 341.32 166.32 347.32 160.32 347.32"/><line class="cls-8" x1="148.96" y1="347.33" x2="41.01" y2="347.33"/><polyline class="cls-7" points="35.33 347.32 29.32 347.32 29.32 341.32"/><line class="cls-8" x1="29.33" y1="329.96" x2="29.33" y2="222.01"/><polyline class="cls-7" points="29.32 216.32 29.32 210.32 35.33 210.32"/><line class="cls-8" x1="46.69" y1="210.33" x2="154.64" y2="210.33"/><polyline class="cls-7" points="160.32 210.32 166.32 210.32 166.32 216.32"/><line class="cls-8" x1="166.33" y1="227.69" x2="166.33" y2="335.64"/><polyline class="cls-5" points="369.32 363.32 369.32 369.32 363.32 369.32"/><line class="cls-6" x1="352.06" y1="369.33" x2="199.96" y2="369.33"/><polyline class="cls-5" points="194.32 369.32 188.32 369.32 188.32 363.32"/><line class="cls-6" x1="188.33" y1="352.06" x2="188.33" y2="199.96"/><polyline class="cls-5" points="188.32 194.32 188.32 188.32 194.32 188.32"/><line class="cls-6" x1="205.59" y1="188.33" x2="357.69" y2="188.33"/><polyline class="cls-5" points="363.32 188.32 369.32 188.32 369.32 194.32"/><line class="cls-6" x1="369.33" y1="205.59" x2="369.33" y2="357.69"/><polyline class="cls-5" points="188.32 363.32 188.32 369.32 182.32 369.32"/><line class="cls-6" x1="171.06" y1="369.33" x2="18.96" y2="369.33"/><polyline class="cls-5" points="13.32 369.32 7.33 369.32 7.33 363.32"/><line class="cls-6" x1="7.33" y1="352.06" x2="7.33" y2="199.96"/><polyline class="cls-5" points="7.33 194.32 7.33 188.32 13.32 188.32"/><line class="cls-6" x1="24.59" y1="188.33" x2="176.69" y2="188.33"/><polyline class="cls-5" points="182.32 188.32 188.32 188.32 188.32 194.32"/><line class="cls-6" x1="188.33" y1="205.59" x2="188.33" y2="357.69"/><text class="cls-9" transform="translate(13.87 25.22)">A0</text><text class="cls-9" transform="translate(194.87 25.22)">A1</text><text class="cls-9" transform="translate(13.87 206.22)">B0</text><text class="cls-9" transform="translate(194.87 206.22)">B1</text></svg>