<svg id="Layer_1" data-name="Layer 1" xmlns="http://www.w3.org/2000/svg" viewBox="0 0 246.77 228.24"><defs><style>.cls-1{fill:#5C5C5C;}</style></defs><title>Fast</title><path class="cls-1" d="M240.17,104.77c-11.31-7-22.54-14.1-33.78-21.19q-47.62-30.07-95.22-60.2c-3.51-2.23-6.78-2-10.32-.13C97.49,25,97,27.92,97,31.25q.06,19.5,0,39c0,1.29.61,3-.58,3.76-1.51,1-2.73-.57-3.94-1.34Q54.15,48.42,15.82,24.18C12.48,22.07,9,20.49,5.06,22.72S0,28.38,0,32.78q.14,81.48,0,163c0,4,.88,7.36,4.36,9.44,3.87,2.31,7.46,1.25,11.14-1.1Q46.76,184,78.19,164.26c6-3.78,12.06-7.4,18.84-11.55v5.69c0,13,.09,26,0,39,0,4.58,2.34,6.84,6.18,8.56,4.18,1.86,7.21-.66,10.15-2.5,20.7-13,41.26-26.16,61.89-39.23,21.61-13.7,43.19-27.45,64.91-41C248.92,117.76,249,110.23,240.17,104.77ZM42,165.77l-23.9,15.12V120.7q0-34.23,0-68.46c0-1.29-.57-2.94.53-3.79,1.4-1.08,2.4.64,3.41,1.27,32.45,20.48,64.79,41.12,97.36,61.4,4.87,3,2.83,4-.29,6Q80.5,141.41,42,165.77Zm173.29-48.15q-41,25.69-81.86,51.49c-5.86,3.7-11.71,7.42-18.36,11.63,0-13,.07-24.84,0-36.67,0-2.58,1.19-3.77,3.23-5,8.63-5.31,17.05-11,25.72-16.22,7.19-4.36,8.78-12.46,0-17.66s-17.4-11-26.12-16.52C116.4,87.75,115,87.09,115,85c.06-12.13,0-24.26,0-36.77,5.39,1.39,9.14,4.85,13.28,7.43C157.21,73.7,186,92,214.77,110.14l.41.29C220.88,114.09,220.82,114.12,215.25,117.62Z"/></svg>