<svg id="Layer_1" data-name="Layer 1" xmlns="http://www.w3.org/2000/svg" viewBox="0 0 256.08 228.24"><defs><style>.cls-1{fill:#5C5C5C;}.cls-2{fill:none;}</style></defs><title>Reusable</title><path class="cls-1" d="M29.34,136.57c-4,7.11-7.59,13.46-11.2,19.77-3.22,5.63-7.93,7.48-12.76,5.08C.17,158.84-1.51,154.27,1.46,149c6.72-12,13.68-23.94,20.68-35.83,1.59-2.7,2.6-5.75,4.93-8.05,4-3.95,8-4.5,12.5-1.22,12.6,9.2,25.19,18.41,37.7,27.74,5,3.75,6.29,9.64,3.3,13.85s-8.35,4.48-13.74.74c-6.11-4.23-12.1-8.64-19-13.58a72.36,72.36,0,0,0,5.74,19.27c9.14,21.06,23.86,37.08,44.21,47.61a93.6,93.6,0,0,0,40.62,10.39c21,.65,40.28-4.47,57.4-16.51,23.72-16.68,38-39.28,41.3-68.5q4.62-41.11-22-72.58c-16.84-20-38.27-31.06-64.38-33.71C127,16.16,105.64,22.26,86.33,35.66a93.1,93.1,0,0,0-33.4,41.93c-2.49,6.08-7,8.62-12.48,6.77-4.91-1.67-6.89-6.75-4.45-12.93A110.36,110.36,0,0,1,76.18,20.61a110.64,110.64,0,0,1,54-20C165-2.71,194.89,7.66,220.38,31.48c17.06,15.94,28.18,35.28,32.94,58,7.47,35.6-.22,67.85-22.92,96.36-19.3,24.22-44.78,38.14-75.21,41.56-35.13,4-66.12-6.29-92.11-31a111.83,111.83,0,0,1-32.37-56.18C30.48,139.31,30,138.4,29.34,136.57Z"/><rect class="cls-2" x="-261.43" y="21" width="50px" height="50px"/></svg>