<svg id="Layer_1" data-name="Layer 1" xmlns="http://www.w3.org/2000/svg" viewBox="0 0 232.66 228.24"><defs><style>.cls-1{fill:#5C5C5C;}.cls-2{fill:none;}</style></defs><title>Simple</title><path class="cls-1" d="M.11,116.26c-.2-4.15,1.13-7.25,4.87-8.71a9.16,9.16,0,0,1,10.54,2.2Q29.62,123.91,43.78,138C53.91,148.15,64,158.31,74.19,168.4c5.75,5.71,4.21,5.72,10.11-.18Q149.18,103.41,214,38.54a25.1,25.1,0,0,1,5.39-4.38c3.79-2.15,7.24-1.4,10.12,1.24s4.12,6.3,2.2,10.37a18.42,18.42,0,0,1-4,5L88.09,190.39C81.46,197,77.68,197,71,190.28q-33.75-33.75-67.5-67.49C1.56,120.88-.5,119.1.11,116.26Z"/><rect class="cls-2" x="-8.77" y="21" width="276" height="247"/></svg>